<?xml version="1.0" standalone="no"?>
<!DOCTYPE svg PUBLIC "-//W3C//DTD SVG 20010904//EN"
 "http://www.w3.org/TR/2001/REC-SVG-20010904/DTD/svg10.dtd">
<svg version="1.0" xmlns="http://www.w3.org/2000/svg"
 width="1024.000000pt" height="1024.000000pt" viewBox="0 0 1024.000000 1024.000000"
 preserveAspectRatio="xMidYMid meet">

<g transform="translate(0.000000,1024.000000) scale(0.100000,-0.100000)"
fill="#000000" stroke="none">
<path d="M2140 9944 c-367 -56 -679 -213 -940 -474 -143 -143 -230 -264 -320
-445 -101 -206 -154 -382 -180 -610 -6 -60 -10 -1182 -10 -3342 0 -3551 -3
-3354 56 -3588 103 -405 366 -777 716 -1013 493 -333 1119 -395 1704 -169 129
50 142 57 697 381 276 161 885 515 1352 786 468 271 1280 744 1805 1050 1269
740 1770 1031 2035 1185 290 168 350 210 475 335 202 201 337 452 396 735 29
139 27 424 -4 565 -43 192 -125 369 -251 538 -62 84 -224 242 -313 305 -37 27
-431 256 -875 511 -1233 706 -1478 847 -1651 950 -87 52 -296 173 -463 269
-457 261 -1138 654 -1369 790 -113 66 -479 279 -815 472 -335 194 -700 405
-810 470 -294 172 -375 210 -556 259 -201 55 -474 71 -679 40z m3065 -2788
c610 -78 1177 -326 1695 -741 151 -121 393 -355 540 -522 191 -218 410 -523
522 -728 30 -55 60 -110 68 -121 12 -20 5 -36 -91 -193 -599 -988 -1459 -1680
-2364 -1902 -290 -71 -507 -94 -814 -86 -456 12 -869 116 -1271 320 -359 183
-651 397 -955 701 -287 288 -525 595 -740 956 -38 63 -81 134 -97 157 l-29 42
44 68 c188 291 253 387 352 518 454 602 1000 1056 1560 1295 346 148 640 219
1055 254 90 8 408 -4 525 -18z"/>
<path d="M4750 6379 c-488 -40 -927 -344 -1140 -792 -204 -427 -162 -942 110
-1342 212 -311 547 -528 909 -589 123 -21 331 -21 452 0 178 31 352 99 506
200 355 230 578 568 639 969 36 229 -6 539 -94 712 l-18 35 -32 -65 c-75 -151
-242 -247 -432 -247 -137 0 -283 62 -370 157 -163 179 -181 442 -43 650 35 54
124 140 176 171 15 9 27 19 27 23 0 3 -33 18 -72 33 -199 72 -417 102 -618 85z"/>
</g>
</svg>
