<?xml version="1.0" standalone="no"?>
<!DOCTYPE svg PUBLIC "-//W3C//DTD SVG 20010904//EN"
 "http://www.w3.org/TR/2001/REC-SVG-20010904/DTD/svg10.dtd">
<svg version="1.0" xmlns="http://www.w3.org/2000/svg"
 width="512.000000pt" height="512.000000pt" viewBox="0 0 512.000000 512.000000"
 preserveAspectRatio="xMidYMid meet">

<g transform="translate(0.000000,512.000000) scale(0.100000,-0.100000)"
fill="#000000" stroke="none">
<path d="M681 4784 c-169 -45 -301 -180 -346 -351 -23 -86 -23 -2540 0 -2626
46 -178 193 -320 367 -356 37 -8 409 -11 1225 -9 1166 3 1172 3 1199 24 53 39
69 71 69 134 0 63 -16 95 -69 134 -27 21 -35 21 -1206 26 -1171 5 -1179 5
-1206 26 -15 11 -37 33 -48 48 -21 27 -21 30 -21 1286 0 1256 0 1259 21 1286
11 15 33 37 48 48 l27 21 1819 0 1819 0 27 -21 c15 -11 37 -33 48 -48 21 -27
21 -34 26 -1286 5 -1252 5 -1259 26 -1286 39 -53 71 -69 134 -69 63 0 95 16
134 69 21 27 21 33 24 1279 2 874 -1 1268 -9 1305 -36 174 -178 321 -356 367
-85 22 -3669 21 -3752 -1z"/>
<path d="M1947 3860 c-97 -25 -175 -87 -219 -178 l-33 -67 0 -500 c0 -496 0
-500 22 -548 35 -75 77 -121 143 -156 71 -38 154 -50 224 -32 74 18 966 455
1013 496 57 49 91 108 108 194 34 160 -37 278 -217 364 -51 25 -210 102 -353
172 -483 235 -524 253 -590 259 -33 3 -77 1 -98 -4z"/>
<path d="M3780 2229 c-57 -23 -100 -85 -100 -141 0 -30 -5 -36 -65 -66 -117
-61 -217 -192 -244 -320 -33 -158 7 -305 117 -423 89 -97 186 -144 329 -158
58 -6 93 -15 111 -28 93 -69 95 -192 4 -261 -29 -22 -46 -27 -93 -27 -90 0
-145 51 -158 146 -10 71 -32 112 -78 140 -106 66 -243 -15 -243 -143 0 -59 25
-151 58 -212 38 -71 135 -167 205 -200 55 -28 57 -30 57 -68 0 -55 31 -102 84
-127 54 -27 81 -26 136 1 56 29 81 64 87 122 5 45 8 47 67 79 126 67 226 209
245 350 36 256 -144 501 -395 539 -38 5 -85 12 -104 15 -46 6 -106 67 -115
116 -11 60 3 107 44 148 41 41 88 55 148 44 50 -9 109 -69 117 -118 3 -20 9
-54 12 -74 8 -49 67 -109 117 -118 109 -21 197 54 197 168 0 156 -110 334
-255 408 -61 32 -63 35 -68 77 -9 77 -66 133 -144 138 -26 2 -59 -1 -73 -7z"/>
</g>
</svg>
