<?xml version="1.0" standalone="no"?>
<!DOCTYPE svg PUBLIC "-//W3C//DTD SVG 20010904//EN"
 "http://www.w3.org/TR/2001/REC-SVG-20010904/DTD/svg10.dtd">
<svg version="1.0" xmlns="http://www.w3.org/2000/svg"
 width="512.000000pt" height="512.000000pt" viewBox="0 0 512.000000 512.000000"
 preserveAspectRatio="xMidYMid meet">

<g transform="translate(0.000000,512.000000) scale(0.100000,-0.100000)"
fill="#000000" stroke="none">
<path d="M703 4461 c-229 -56 -410 -235 -470 -464 -21 -81 -21 -233 0 -314 87
-331 419 -538 752 -468 233 49 435 245 489 475 9 36 16 103 16 150 0 179 -58
318 -185 446 -63 64 -98 90 -165 123 -144 70 -291 88 -437 52z"/>
<path d="M2405 4466 c-144 -29 -264 -84 -376 -174 -345 -273 -422 -764 -180
-1135 75 -114 199 -224 322 -286 142 -71 233 -93 384 -94 234 0 422 74 587
231 135 129 218 278 253 451 23 112 16 294 -15 401 -48 166 -165 340 -298 441
-80 61 -223 131 -312 154 -90 22 -277 28 -365 11z"/>
<path d="M4130 4464 c-229 -49 -431 -246 -484 -474 -9 -36 -16 -103 -16 -150
0 -179 58 -318 185 -446 92 -93 201 -154 320 -179 333 -70 662 135 751 466 22
83 23 234 1 316 -88 333 -421 540 -757 467z"/>
<path d="M555 2980 c-247 -39 -445 -204 -522 -435 -26 -78 -27 -87 -31 -372
-3 -244 -1 -302 13 -355 42 -166 177 -290 346 -317 96 -16 489 -14 489 2 0 6
5 62 10 122 35 372 199 705 475 963 48 45 116 100 151 123 35 24 64 46 64 50
0 14 -114 111 -164 140 -28 16 -87 41 -131 56 -78 26 -86 27 -365 29 -157 1
-307 -1 -335 -6z"/>
<path d="M3964 2981 c-127 -20 -245 -77 -337 -162 -34 -31 -60 -59 -57 -61 3
-2 41 -30 85 -63 346 -254 565 -642 605 -1070 5 -60 10 -116 10 -122 0 -16
393 -18 489 -2 169 27 304 151 346 317 14 53 16 111 13 355 -3 289 -4 293 -31
371 -59 168 -163 289 -317 370 -120 63 -154 68 -470 72 -157 1 -308 -1 -336
-5z"/>
<path d="M2165 2544 c-388 -69 -703 -341 -831 -716 -43 -128 -56 -247 -52
-470 4 -188 6 -208 30 -276 37 -104 83 -176 158 -252 76 -75 147 -120 252
-158 l73 -27 765 0 765 0 73 27 c105 38 176 83 252 158 76 76 121 149 157 252
24 67 27 90 31 271 2 124 0 229 -8 279 -35 241 -136 444 -305 614 -160 161
-351 260 -579 299 -121 20 -663 20 -781 -1z"/>
</g>
</svg>
