<?xml version="1.0" standalone="no"?>
<!DOCTYPE svg PUBLIC "-//W3C//DTD SVG 20010904//EN"
 "http://www.w3.org/TR/2001/REC-SVG-20010904/DTD/svg10.dtd">
<svg version="1.0" xmlns="http://www.w3.org/2000/svg"
 width="512.000000pt" height="512.000000pt" viewBox="0 0 512.000000 512.000000"
 preserveAspectRatio="xMidYMid meet">

<g transform="translate(0.000000,512.000000) scale(0.100000,-0.100000)"
fill="#000000" stroke="none">
<path d="M2410 4170 c-543 -44 -1029 -286 -1475 -734 -213 -214 -394 -449
-545 -709 -82 -141 -86 -175 -36 -269 139 -263 350 -543 586 -779 403 -404
845 -641 1335 -715 146 -22 413 -22 565 0 316 45 623 165 911 357 355 237 706
617 955 1033 122 202 122 209 0 412 -256 429 -605 802 -981 1050 -397 261
-876 390 -1315 354z m238 -597 c47 -35 65 -70 70 -132 l4 -58 62 -7 c141 -14
302 -132 367 -270 54 -113 64 -247 23 -304 -32 -43 -101 -74 -149 -67 -86 13
-131 65 -145 167 -13 89 -57 140 -136 158 -21 5 -104 10 -184 10 -80 0 -163
-5 -184 -10 -79 -18 -127 -73 -134 -154 -6 -73 28 -134 91 -165 39 -19 61 -21
238 -21 140 0 211 -4 252 -15 225 -58 376 -250 377 -475 0 -189 -104 -357
-274 -440 -56 -28 -100 -42 -142 -46 l-62 -7 -4 -58 c-7 -100 -63 -154 -158
-154 -95 0 -151 54 -158 155 -4 60 -5 60 -36 60 -145 1 -327 127 -397 274 -54
113 -64 247 -23 304 31 42 101 74 148 67 86 -13 132 -65 146 -167 13 -89 57
-140 136 -158 51 -12 317 -12 368 0 79 18 127 73 134 154 6 73 -28 134 -91
165 -39 19 -61 21 -238 21 -140 0 -211 4 -252 15 -320 83 -470 426 -316 716
71 133 250 248 387 249 31 0 32 1 32 44 0 77 33 134 95 162 40 19 119 12 153
-13z"/>
</g>
</svg>
